<svg viewBox="0 0 250 250" enable-background="new 0 0 250 250" xmlns="http://www.w3.org/2000/svg" xmlns:svg="http://www.w3.org/2000/svg">
  <g>
    <polygon fill="#cf649a" points="125,30 31.9,63.2 46.1,186.3 125,230 125,230 125,230 203.9,186.3 218.1,63.2 125,30 " />
    <polygon fill="#bf4080" points="125,52.1 125,153.4 125,153.4 125,230 125,230 203.9,186.3 218.1,63.2 125,30 125,52.2 " />
    <path fill="#fff" d="m 106.85826,178.39369 c 0,3.32601 2.72127,6.04726 6.04725,6.04726 h 24.18897 c 3.326,0 6.04725,-2.72125 6.04725,-6.04726 v -6.04723 H 106.85826 Z M 125,63.496063 c -23.34237,0 -42.330712,18.988346 -42.330712,42.330727 0,14.39241 7.196221,27.03116 18.141732,34.71117 v 13.66678 c 0,3.32597 2.72126,6.04724 6.04724,6.04724 h 36.28347 c 3.32598,0 6.04724,-2.72127 6.04724,-6.04724 v -13.66678 c 10.94552,-7.68001 18.14172,-20.31876 18.14172,-34.71117 0,-23.342381 -18.98833,-42.330727 -42.33069,-42.330727 z m 17.23463,67.124417 -5.14015,3.62834 v 13.90866 h -24.18897 v -13.90866 l -5.14017,-3.62834 C 99.60157,124.93606 94.763777,115.68379 94.763777,105.82679 94.763777,89.136377 108.3096,75.590551 125,75.590551 c 16.69038,0 30.23621,13.545826 30.23621,30.236239 0,9.857 -4.83778,19.10927 -13.00158,24.79369 z" />
  </g>
</svg>
